<?xml version="1.0" standalone="no"?>
<!DOCTYPE svg PUBLIC "-//W3C//DTD SVG 20010904//EN"
 "http://www.w3.org/TR/2001/REC-SVG-20010904/DTD/svg10.dtd">
<svg version="1.0" xmlns="http://www.w3.org/2000/svg"
 width="1012.000000pt" height="1000.000000pt" viewBox="0 0 1012.000000 1000.000000"
 preserveAspectRatio="xMidYMid meet">

<g transform="translate(0.000000,1000.000000) scale(0.100000,-0.100000)"
fill="#000000" stroke="none">
<path d="M40 5000 l0 -5000 1080 0 1080 0 0 230 0 230 -845 0 -845 0 0 4540 0
4540 845 0 845 0 0 230 0 230 -1080 0 -1080 0 0 -5000z"/>
<path d="M2595 9983 c-79 -41 -117 -107 -119 -203 -1 -54 4 -73 27 -112 30
-52 -2 -30 2035 -1393 517 -346 941 -633 941 -636 1 -3 -658 -445 -1463 -982
-958 -638 -1472 -987 -1489 -1009 -53 -72 -64 -192 -24 -263 31 -55 104 -102
170 -110 28 -3 1125 -5 2437 -3 l2386 3 49 26 c97 49 140 162 101 264 -22 57
-91 119 -151 134 -31 8 -618 11 -2096 11 l-2052 0 1319 865 c726 476 1334 877
1353 891 44 35 71 96 71 162 0 63 -18 108 -56 143 -16 14 -622 417 -1346 895
l-1317 869 2062 5 c1525 4 2069 8 2088 17 79 35 139 129 139 219 0 73 -41 150
-104 192 l-48 32 -2442 0 c-2206 -1 -2444 -2 -2471 -17z"/>
<path d="M7920 9770 l0 -230 845 0 845 0 0 -4540 0 -4540 -845 0 -845 0 0
-230 0 -230 1080 0 1080 0 0 5000 0 5000 -1080 0 -1080 0 0 -230z"/>
<path d="M7350 4337 c-184 -68 -4770 -1951 -4798 -1970 -115 -77 -132 -254
-34 -350 47 -46 -236 72 2563 -1071 2139 -874 2320 -946 2373 -946 133 0 209
72 210 200 1 82 -33 147 -97 184 -23 13 -341 144 -707 291 -366 147 -673 271
-682 276 -17 9 -18 77 -18 1213 l0 1203 678 277 c372 153 695 288 718 301 77
45 122 141 108 232 -8 54 -58 131 -102 156 -52 31 -136 32 -212 4z m-1622
-2691 l-3 -515 -1262 507 c-694 279 -1263 509 -1263 512 0 3 568 238 1263 522
l1262 517 3 -515 c1 -283 1 -745 0 -1028z"/>
</g>
</svg>
