<svg xmlns="http://www.w3.org/2000/svg" version="1.1" xmlns:xlink="http://www.w3.org/1999/xlink" xmlns:svgjs="http://svgjs.dev/svgjs" width="1000" height="1012" viewBox="0 0 1000 1012"><g transform="matrix(1,0,0,1,0.8839410246850434,0.40971659919023296)"><svg viewBox="0 0 244 247" data-background-color="#ffffff" preserveAspectRatio="xMidYMid meet" height="1012" width="1000" xmlns="http://www.w3.org/2000/svg" xmlns:xlink="http://www.w3.org/1999/xlink"><g id="tight-bounds" transform="matrix(1,0,0,1,-0.21568161002315378,-0.09999999999999432)"><svg viewBox="0 0 244.43135999999998 247.2" height="247.2" width="244.43135999999998"><g><svg></svg></g><g><svg viewBox="0 0 244.43135999999998 247.2" height="247.2" width="244.43135999999998"><g transform="matrix(1,0,0,1,0,59.92967040947213)"><svg viewBox="0 0 244.43135999999998 127.34065918105573" height="127.34065918105573" width="244.43135999999998"><g><svg viewBox="0 0 244.43135999999998 127.34065918105573" height="127.34065918105573" width="244.43135999999998"><g><svg viewBox="0 0 244.43135999999998 127.34065918105573" height="127.34065918105573" width="244.43135999999998"><g><svg viewBox="0 0 244.43135999999998 127.34065918105573" height="127.34065918105573" width="244.43135999999998"><g id="textblocktransform"><svg viewBox="0 0 244.43135999999998 127.34065918105573" height="127.34065918105573" width="244.43135999999998" id="textblock"><g><svg viewBox="0 0 244.43135999999998 127.34065918105573" height="127.34065918105573" width="244.43135999999998"><g transform="matrix(1,0,0,1,0,0)"><svg width="244.43135999999998" viewBox="1.433333396911621 -35.150001525878906 67.56666564941406 35.20000076293945" height="127.34065918105573" data-palette-color="#ff0000"><path d="M15.5-31.35L16.4-31.15 4.25-0.95Q4.05-0.45 3.7-0.2 3.35 0.05 2.9 0.05L2.9 0.05Q2.2 0.05 1.85-0.33 1.5-0.7 1.45-1.25L1.45-1.25Q1.4-1.5 1.5-1.85L1.5-1.85 14.7-34.15Q14.95-34.7 15.33-34.93 15.7-35.15 16.2-35.15L16.2-35.15Q16.7-35.15 17.07-34.88 17.45-34.6 17.65-34.15L17.65-34.15 30.8-2Q30.9-1.7 30.9-1.4L30.9-1.4Q30.9-0.7 30.45-0.33 30 0.05 29.4 0.05L29.4 0.05Q28.9 0.05 28.53-0.23 28.15-0.5 27.95-0.95L27.95-0.95 15.5-31.35ZM24.5-10.1L7.15-10.1 8.4-13.05 23.9-13.05 24.5-10.1ZM38.55-35L38.55-35Q38.9-35 39.27-34.85 39.65-34.7 39.9-34.35L39.9-34.35 53.7-13.65 52.35-13.7 66.2-34.35Q66.75-35.1 67.55-35L67.55-35Q68.15-35 68.57-34.58 69-34.15 69-33.5L69-33.5 69-1.5Q69-0.9 68.55-0.45 68.1 0 67.45 0L67.45 0Q66.75 0 66.3-0.45 65.85-0.9 65.85-1.5L65.85-1.5 65.85-30.45 66.75-30.35 54.1-11.2Q53.95-10.9 53.65-10.73 53.35-10.55 52.95-10.6L52.95-10.6Q52.6-10.55 52.27-10.73 51.95-10.9 51.75-11.2L51.75-11.2 39.05-30.55 40-31.2 40-1.5Q40-0.9 39.57-0.45 39.15 0 38.5 0L38.5 0Q37.85 0 37.45-0.45 37.05-0.9 37.05-1.5L37.05-1.5 37.05-33.5Q37.05-34.1 37.47-34.55 37.9-35 38.55-35Z" opacity="1" transform="matrix(1,0,0,1,0,0)" fill="#ff0000" class="undefined-text-0" data-fill-palette-color="primary" id="text-0"></path></svg></g></svg></g></svg></g></svg></g><g></g></svg></g></svg></g></svg></g><path d="M0 53.93L0 1 244.431 1 244.431 53.93 232.948 53.93 232.948 12.484 11.484 12.484 11.484 53.93 0 53.93M0 193.27L0 246.2 244.431 246.2 244.431 193.27 232.948 193.27 232.948 234.716 11.484 234.716 11.484 193.27 0 193.27" fill="#ff0000" stroke="transparent" data-fill-palette-color="primary"></path></svg></g><defs></defs></svg><rect width="244.43135999999998" height="247.2" fill="none" stroke="none" visibility="hidden"></rect></g></svg></g></svg>